<?xml version="1.0" standalone="no"?>
<svg xmlns="http://www.w3.org/2000/svg" xmlns:xlink="http://www.w3.org/1999/xlink" height="320px" width="320px">
  <defs>
    <pattern id="doodad" width="53" height="53" viewBox="0 0 40 40" patternUnits="userSpaceOnUse" patternTransform="">
      <rect width="100%" height="100%" fill="rgba(24, 29, 35,1)"/>
      <path d="M40 20L34 14L34 6L26 6L20 0L14 6L6 6L6 14L0 20L6 26L6 34L14 34L20 40L26 34L34 34L34 26z" fill="rgba(14, 19, 23,1)" filter="url(#filter-doodad-1)"/>
      <path d="M38 20L34 14L34 6L26 6L20 3L14 6L6 6L6 14L2 20L6 26L6 34L14 34L20 37L26 34L34 34L34 26z" fill="rgba(197, 157, 95,1)"/>
      <path d="M17 17L6 14v-8h8zM23 17L26 6h8v8zM17 23L6 26v8h8zM23 23L34 26v8h-8z" fill="rgba(14, 19, 23,1)" filter="url(#filter-doodad-1)"/>
    </pattern>
    <filter id="filter-doodad-1">
      <feTurbulence baseFrequency="0" numOctaves="2" type="fractalNoise" result="result1"/>
      <feDisplacementMap in2="result1" scale="0" result="result2" xChannelSelector="R" in="SourceGraphic"/>
      <feComposite in2="result2" in="SourceGraphic" operator="atop" result="fbSourceGraphic"/>
    </filter>
  </defs>
  <rect fill="url(#doodad)" height="200%" width="200%"/>
</svg>
